<?xml version="1.0" encoding="utf-8"?>
<!-- Generator: Adobe Illustrator 18.0.0, SVG Export Plug-In . SVG Version: 6.00 Build 0)  -->
<!DOCTYPE svg PUBLIC "-//W3C//DTD SVG 1.1//EN" "http://www.w3.org/Graphics/SVG/1.1/DTD/svg11.dtd">
<svg version="1.1" id="Layer_1" xmlns="http://www.w3.org/2000/svg" xmlns:xlink="http://www.w3.org/1999/xlink" x="0px" y="0px"
	 viewBox="0 0 205.6 69.3" enable-background="new 0 0 205.6 69.3" xml:space="preserve">
<g>
	<path fill="none" d="M22.9,6.9c1.2,7.1,2,14.2,2.4,21.4c0.4-3.7,2.2-7.2,5-10.1c0.8-0.8,1.9-1.6,3-1.2c1,0.4,1.2,1.5,1.1,2.5
		c-0.5,5.2-5,10.1-11,11.7c-0.5,0.1-1.3-0.1-1.1-0.4"/>
</g>
<g>
	<path fill="none" d="M38.2,25.7c0,1.5,0.3,3,0.8,4.4c0.4-2,1.1-4,1.9-5.9c0.6-1.4,1.3-2.7,2.5-3.8c1.2-1,3-1.7,4.7-1.3"/>
</g>
<g>
	<path fill="none" d="M53.2,20.4c-2.5,1.9-4.2,4.8-4.7,7.9c-0.1,0.6-0.1,1.2,0.4,1.6c0.2,0.2,0.6,0.2,0.8,0.1
		c1.3-0.2,2.2-1.5,2.9-2.6c1.3-2.3,2.5-4.6,3.4-7.1c-0.1,2.1,0.3,4.3,1.7,5.9c1.4,1.6,4,2.2,5.7,0.9"/>
</g>
<g>
	<path fill="none" d="M64.6,5.4c0.8,8.4,1.7,16.9,2.5,25.3c0.4-1.3,0.9-2.7,1.3-4c1-2.9,2-6,4.1-8.2c0.4-0.5,1.1-0.9,1.7-0.7
		c0.4,0.1,0.7,0.6,0.9,1c0.8,1.5,1.3,3.2,1.5,4.9c0.2,1.9,0,4,1.4,5.3"/>
</g>
<g>
	<path fill="none" d="M88.8,20.2c-3.3,1.1-5.9,3.9-6.9,7.2c-0.1,0.5-0.2,1,0.1,1.4c0.5,0.6,1.5,0.3,2.1-0.1c3-1.7,5.5-4.4,7.1-7.5
		c-0.2,1.7,0,3.4,1,4.8c0.9,1.4,2.7,2.2,4.3,1.8"/>
</g>
<g>
	<path fill="none" d="M100,23.7c-0.2,1.9-0.2,3.8-0.1,5.7c1.7-2.5,3.4-5.1,5-7.6c0.2-0.4,0.7-0.8,1.1-0.6c0.3,0.1,0.4,0.5,0.4,0.8
		c0.2,2.2,0.3,4.5,0.2,6.8c0.9-0.2,1.5-1.1,2-1.9c1.5-2.6,3.4-4.9,5.6-7.1c1,1.2,0.9,3,0.8,4.7c-0.1,1.6,0.1,3.5,1.4,4.4"/>
</g>
<g>
	<path fill="none" d="M1.5,33.3c1.2-5.5,2.7-11,4.3-16.4C6.8,13.3,8,9.8,9.8,6.5c0.3-0.5,0.7-1.1,1.4-1.1c0.8,0,1.3,0.7,1.5,1.4
		c2.6,7.2,2.1,15.1,5.2,22.2"/>
</g>
<g>
	<path fill="none" d="M5.1,21.5c2.9-1.5,5.8-2.9,8.7-4.3"/>
</g>
<g>
	<path fill="none" d="M127.6,6.1c-0.5,4.6-1,9.4,0.2,13.9c1.2,4.5,4.6,8.7,9.2,9.6c1.9,0.3,3.8,0.1,5.6-0.4
		c9.7-2.5,16.7-11.1,20.4-20.4c0.8-2,1.5-4.2,1-6.3c-0.1-0.5-0.4-1.1-0.9-1.2c-0.4-0.1-0.8,0-1.2,0.2c-2.8,1.3-4.4,4.2-5.7,7
		c-8.3,18.4-9.9,39.3-6.6,59.2"/>
</g>
<g>
	<path fill="none" d="M180.6,24.5c1.3-0.7,3.9-1.1,4.9-2.1c0.4-0.4,1.6-1.2,1.4-1.7c-0.6-1.7-2.2-1.1-2.7-1.2c-0.2,0-0.4,0-0.6,0.1
		c-2.2,0.8-3.3,3.2-3.9,5.5c-0.2,0.9-0.4,1.9,0,2.8c0.6,1.3,2.3,1.9,3.7,1.6c1.4-0.3,2.6-1.2,3.8-2.1"/>
</g>
<g>
	<path fill="none" d="M164.2,20.7c-1.3,2.3-2,5-2.1,7.7c0,0.5,0,1,0.3,1.3c0.5,0.5,1.4,0.2,2.1-0.3c1.8-1.2,3.3-2.7,4.6-4.5
		c1.3-1.8,2.4-3.9,4.1-5.3c0.3,2.6-1.1,5.5,0.1,7.8c0.7,1.2,0.7,1.6,2,1.8"/>
</g>
<g>
	<path fill="none" d="M191.5,22.7c0.4,2.2-0.1,4.5-0.3,6.8c1.5-2.5,3.2-4.8,5-7.1c1-1.3,2.5-2.6,4-2.1c-0.2,1.7-0.4,3.5-0.7,5.2
		c-0.1,1-0.2,2.1,0.5,2.8c1,1.1,2.8,0.5,4.1-0.1"/>
</g>
</svg>
