<?xml version="1.0" encoding="utf-8"?>
<!-- Generator: Adobe Illustrator 19.1.0, SVG Export Plug-In . SVG Version: 6.00 Build 0)  -->
<svg version="1.1" id="Layer_1" xmlns="http://www.w3.org/2000/svg" xmlns:xlink="http://www.w3.org/1999/xlink" x="0px" y="0px"
	 viewBox="0 0 600 350" style="enable-background:new 0 0 600 350;" xml:space="preserve">
<style type="text/css">
	.st0{fill:#EF4136;}
	.st1{fill:#FFFFFF;}
	.st2{fill:#002A8F;}
	.st3{fill:#CF142B;}
</style>
<rect id="Background_1_" class="st0" width="600" height="350"/>
<g>
	<path class="st1" d="M193.1,191.7h2.8l7.7,17.9h-3.2l-1.8-4.3h-8.2l-1.8,4.3h-3.1L193.1,191.7z M197.5,202.6l-3-7.1l-3,7.1H197.5z"
		/>
	<path class="st1" d="M204.9,207l1.8-2.2c1.7,1.5,3.3,2.3,5.5,2.3c1.9,0,3.1-0.9,3.1-2.2v-0.1c0-1.3-0.7-2-3.9-2.7
		c-3.7-0.9-5.8-2-5.8-5.3v-0.1c0-3,2.5-5.2,6-5.2c2.5,0,4.6,0.8,6.3,2.2l-1.6,2.4c-1.6-1.2-3.1-1.8-4.7-1.8c-1.8,0-2.8,0.9-2.8,2.1
		v0.1c0,1.4,0.8,2,4.1,2.8c3.7,0.9,5.6,2.3,5.6,5.2v0.1c0,3.3-2.6,5.3-6.2,5.3C209.5,209.9,207,208.9,204.9,207z"/>
	<path class="st1" d="M220.4,207l1.8-2.2c1.7,1.5,3.3,2.3,5.5,2.3c1.9,0,3.1-0.9,3.1-2.2v-0.1c0-1.3-0.7-2-3.9-2.7
		c-3.7-0.9-5.8-2-5.8-5.3v-0.1c0-3,2.5-5.2,6-5.2c2.5,0,4.6,0.8,6.3,2.2l-1.6,2.4c-1.6-1.2-3.1-1.8-4.7-1.8c-1.8,0-2.8,0.9-2.8,2.1
		v0.1c0,1.4,0.8,2,4.1,2.8c3.7,0.9,5.6,2.3,5.6,5.2v0.1c0,3.3-2.6,5.3-6.2,5.3C225,209.9,222.5,208.9,220.4,207z"/>
	<path class="st1" d="M236.5,200.8L236.5,200.8c0-5.1,3.8-9.2,9.1-9.2c5.4,0,9.1,4.1,9.1,9.1v0.1c0,5-3.8,9.2-9.1,9.2
		C240.2,209.9,236.5,205.8,236.5,200.8z M251.5,200.8L251.5,200.8c0-3.5-2.5-6.4-5.9-6.4c-3.5,0-5.9,2.8-5.9,6.3v0.1
		c0,3.5,2.5,6.3,5.9,6.3C249.1,207.1,251.5,204.2,251.5,200.8z"/>
	<path class="st1" d="M257.4,200.8L257.4,200.8c0-5.1,3.7-9.2,9-9.2c3.2,0,5.2,1.1,6.8,2.8l-2,2.3c-1.4-1.3-2.9-2.2-4.9-2.2
		c-3.3,0-5.8,2.8-5.8,6.3v0.1c0,3.5,2.4,6.3,5.8,6.3c2.1,0,3.5-0.9,5-2.3l2,2c-1.8,1.9-3.8,3.2-7.1,3.2
		C261.2,209.9,257.4,205.9,257.4,200.8z"/>
	<path class="st1" d="M276.5,191.8h3.1v7.9v9.9h-3.1v-9.9V191.8z"/>
	<path class="st1" d="M290.1,191.7h2.8l7.7,17.9h-3.2l-1.8-4.3h-8.2l-1.8,4.3h-3.1L290.1,191.7z M294.5,202.6l-3-7.1l-3,7.1H294.5z"
		/>
	<path class="st1" d="M305.4,194.7h-5.5v-2.9H314v2.9h-5.5v14.9h-3.1V194.7z"/>
	<path class="st1" d="M317.2,191.8h3.1v7.3v10.5h-3.1v-10.5V191.8z"/>
	<path class="st1" d="M323.9,200.8L323.9,200.8c0-5.1,3.8-9.2,9.1-9.2c5.4,0,9.1,4.1,9.1,9.1v0.1c0,5-3.8,9.2-9.1,9.2
		C327.6,209.9,323.9,205.8,323.9,200.8z M338.9,200.8L338.9,200.8c0-3.5-2.5-6.4-5.9-6.4s-5.9,2.8-5.9,6.3v0.1
		c0,3.5,2.5,6.3,5.9,6.3S338.9,204.2,338.9,200.8z"/>
	<path class="st1" d="M345.6,191.8h2.8l9.3,12.3v-12.3h3v17.8h-2.6l-9.6-12.7v12.7h-3V191.8z"/>
	<path class="st1" d="M184.6,233.6L184.6,233.6c0-5.1,3.7-9.2,9-9.2c3.2,0,5.2,1.1,6.8,2.8l-2,2.3c-1.4-1.3-2.9-2.2-4.9-2.2
		c-3.3,0-5.8,2.8-5.8,6.3v0.1c0,3.5,2.4,6.3,5.8,6.3c2.1,0,3.5-0.9,5-2.3l2,2c-1.8,1.9-3.8,3.2-7.1,3.2
		C188.4,242.7,184.6,238.7,184.6,233.6z"/>
	<path class="st1" d="M203.2,234.9v-10.2h3.1v10.1c0,3.3,1.7,5.1,4.4,5.1c2.7,0,4.4-1.7,4.4-5v-10.2h3.1v10.1c0,5.3-2.9,8-7.5,8
		C206.1,242.7,203.2,240,203.2,234.9z"/>
	<path class="st1" d="M222.1,224.6h7.8c2,0,3.6,0.6,4.6,1.6c0.8,0.8,1.2,1.8,1.2,2.9v0.1c0,2.1-1.2,3.3-2.5,4c2,0.7,3.5,1.9,3.5,4.3
		v0.1c0,3.2-2.6,4.9-6.5,4.9h-8.1V224.6z M229.3,232.1c2,0,3.3-0.8,3.3-2.4v-0.1c0-1.4-1.1-2.3-3.1-2.3h-4.4v4.7H229.3z
		 M230.2,239.6c2.1,0,3.4-0.8,3.4-2.4v-0.1c0-1.5-1.2-2.4-3.6-2.4h-4.9v4.9H230.2z"/>
	<path class="st1" d="M246,224.5h2.8l7.7,17.9h-3.2l-1.8-4.3h-8.2l-1.8,4.3h-3.1L246,224.5z M250.4,235.4l-3-7.1l-3,7.1H250.4z"/>
	<path class="st1" d="M259.2,224.6h2.8l9.3,12.3v-12.3h3v17.8h-2.6l-9.6-12.7v12.7h-3V224.6z"/>
	<path class="st1" d="M296.5,239.8l1.8-2.2c1.7,1.5,3.3,2.3,5.5,2.3c1.9,0,3.1-0.9,3.1-2.2v-0.1c0-1.3-0.7-2-3.9-2.7
		c-3.7-0.9-5.8-2-5.8-5.3v-0.1c0-3,2.5-5.2,6-5.2c2.5,0,4.6,0.8,6.3,2.2l-1.6,2.4c-1.6-1.2-3.1-1.8-4.7-1.8c-1.8,0-2.8,0.9-2.8,2.1
		v0.1c0,1.4,0.8,2,4.1,2.8c3.7,0.9,5.6,2.3,5.6,5.2v0.1c0,3.3-2.6,5.3-6.2,5.3C301.1,242.7,298.5,241.7,296.5,239.8z"/>
	<path class="st1" d="M317.2,227.5h-5.5v-2.9h14.1v2.9h-5.5v14.9h-3.1V227.5z"/>
	<path class="st1" d="M328.6,234.9v-10.2h3.1v10.1c0,3.3,1.7,5.1,4.4,5.1c2.7,0,4.4-1.7,4.4-5v-10.2h3.1v10.1c0,5.3-2.9,8-7.5,8
		C331.4,242.7,328.6,240,328.6,234.9z"/>
	<path class="st1" d="M347.4,224.6h6.5c5.5,0,9.3,3.8,9.3,8.8v0.1c0,5-3.8,8.9-9.3,8.9h-6.5V224.6z M353.9,239.6
		c3.7,0,6.1-2.5,6.1-6v-0.1c0-3.5-2.4-6-6.1-6h-3.4v12.1H353.9z"/>
	<path class="st1" d="M366.7,224.6h12.9v2.8h-9.9v4.6h8.7v2.8h-8.7v4.8h10v2.8h-13.1V224.6z"/>
	<path class="st1" d="M383.1,224.6h2.8l9.3,12.3v-12.3h3v17.8h-2.6l-9.6-12.7v12.7h-3V224.6z"/>
	<path class="st1" d="M406.8,227.5h-5.5v-2.9h14.1v2.9h-5.5v14.9h-3.1V227.5z"/>
	<path class="st1" d="M185.3,256.9h12.9v2.8h-9.9v4.6h8.7v2.8h-8.7v4.8h10v2.8h-13.1V256.9z"/>
	<path class="st1" d="M201.8,256.9h2.8l9.3,12.3v-12.3h3v17.8h-2.6l-9.6-12.7v12.7h-3V256.9z"/>
	<path class="st1" d="M220.4,265.9L220.4,265.9c0-5,3.7-9.2,9-9.2c3,0,4.9,0.9,6.7,2.4l-1.9,2.4c-1.3-1.2-2.7-1.9-4.9-1.9
		c-3.2,0-5.7,2.9-5.7,6.3v0.1c0,3.7,2.4,6.4,5.9,6.4c1.6,0,3.1-0.5,4.2-1.3v-3.3h-4.5v-2.7h7.4v7.5c-1.7,1.5-4.2,2.8-7.3,2.8
		C224,275,220.4,271,220.4,265.9z"/>
	<path class="st1" d="M240.7,256.9h3.1v7.8v10h-3.1v-10V256.9z"/>
	<path class="st1" d="M248.1,256.9h2.8l9.3,12.3v-12.3h3v17.8h-2.6l-9.6-12.7v12.7h-3V256.9z"/>
	<path class="st1" d="M267.6,256.9h12.9v2.8h-9.9v4.6h8.7v2.8h-8.7v4.8h10v2.8h-13.1V256.9z"/>
	<path class="st1" d="M284,256.9h12.9v2.8h-9.9v4.6h8.7v2.8h-8.7v4.8h10v2.8H284V256.9z"/>
	<path class="st1" d="M300.4,256.9h7.8c2.2,0,3.9,0.7,5,1.8c0.9,1,1.4,2.3,1.4,3.8v0.1c0,2.9-1.7,4.7-4.2,5.4l4.7,6.7h-3.6l-4.3-6.2
		h-3.8v6.2h-3.1V256.9z M308,265.7c2.2,0,3.6-1.2,3.6-3v-0.1c0-1.9-1.3-2.9-3.6-2.9h-4.5v6H308z"/>
	<path class="st1" d="M317,272.1l1.8-2.2c1.7,1.5,3.3,2.3,5.5,2.3c1.9,0,3.1-0.9,3.1-2.2v-0.1c0-1.3-0.7-2-3.9-2.7
		c-3.7-0.9-5.8-2-5.8-5.3v-0.1c0-3,2.5-5.2,6-5.2c2.5,0,4.6,0.8,6.3,2.2l-1.6,2.4c-1.6-1.2-3.1-1.8-4.7-1.8c-1.8,0-2.8,0.9-2.8,2.1
		v0.1c0,1.4,0.8,2,4.1,2.8c3.7,0.9,5.6,2.3,5.6,5.2v0.1c0,3.3-2.6,5.3-6.2,5.3C321.6,274.9,319.1,274,317,272.1z"/>
	<g>
		<path class="st1" d="M396,201.1L396,201.1c0-3,2.3-5.4,5.4-5.4s5.3,2.4,5.3,5.3v0c0,2.9-2.3,5.3-5.4,5.3
			C398.3,206.4,396,204,396,201.1z M404.5,201.1L404.5,201.1c0-1.8-1.3-3.3-3.1-3.3c-1.8,0-3,1.5-3,3.3v0c0,1.8,1.3,3.3,3.1,3.3
			C403.3,204.4,404.5,202.9,404.5,201.1z"/>
		<path class="st1" d="M413.8,193.9c0.5,0,0.9,0.1,1.4,0.3l0.2-2c-0.5-0.2-1.2-0.3-2-0.3c-1,0-1.7,0.3-2.3,0.8
			c-0.6,0.5-0.9,1.4-1.1,2.5l-0.2,1.6h-2v2h1.7l-0.9,7.6c-0.2,0.9-0.7,1.2-1.5,1.2c-0.5,0-0.9-0.1-1.4-0.3l-0.2,2
			c0.5,0.2,1.2,0.3,2,0.3c1,0,1.7-0.3,2.3-0.8c0.6-0.5,0.9-1.4,1.1-2.5l0.9-7.5h2.2v-2h-2l0.2-1.5
			C412.4,194.3,412.9,193.9,413.8,193.9z"/>
	</g>
	<rect x="184.6" y="75" class="st1" width="230.9" height="89"/>
	<g>
		<path class="st2" d="M234.2,113.9h2v-0.8c0-7.1-4.5-10.5-10.4-10.5c-7.7,0-15.2,2-15.2,2L206.8,93c0,0,7.5-1.4,20.2-1.4
			c14.1,0,22.4,7.8,22.4,21.4v33.3h-12.3v-4.1c0-2.1-0.1-4-0.1-4h-0.2c0.1,0-4.1,9.6-16.3,9.6c-9.6,0-18.2-5.9-18.2-16.7
			C202.4,114,225.5,113.9,234.2,113.9z M224,137.3c7.1,0,12.1-7.2,12.1-13.8v-1.3h-2.4c-6.8,0-17.9,0.6-17.9,8.1
			C215.9,134,218.5,137.3,224,137.3z"/>
		<path class="st2" d="M286.5,91.4c14.8,0,16.2,1.5,16.2,1.5l-4.2,11.6c0,0-3.5-1.8-12.3-1.8c-14.1,0-18.1,7.5-18.1,16.6
			c0,9.1,3.3,16.8,16.7,16.8c9.1,0,14.6-1.5,14.6-1.5l4.1,11.5c0,0-5.4,1.4-19.9,1.4c-21.2,0-29.2-12.5-29.2-28.1
			C254.7,104.3,261,91.4,286.5,91.4z"/>
		<path class="st3" d="M311.1,134.7c0,0,6.5,1.7,15.2,1.7c3.8,0,7.8-1.7,7.8-4.8c0-8-26.8-5.2-26.8-22.5c0-10,11.4-17.5,23-17.5
			c12.1,0,16.6,1.4,16.6,1.4l-4.1,11.6c0,0-4.1-1.6-12.3-1.6c-3.5,0-9.6,2.5-9.6,5.9c0,8.6,26.8,5.6,26.8,22.8
			c0,8.9-8.1,16.1-20.9,16.1c-13.4,0-19.4-1.5-19.4-1.5L311.1,134.7z"/>
		<polygon class="st2" points="397.2,134.6 397.2,146.2 355.3,146.2 359.1,134.6 		"/>
		<polygon class="st2" points="397.2,92.9 397.2,104.4 354.5,104.4 350.9,92.9 		"/>
		<polygon class="st2" points="397.2,113.9 397.2,125.5 361.3,125.5 357.5,113.9 		"/>
	</g>
</g>
</svg>
