<?xml version="1.0" encoding="utf-8"?>
<!-- Generator: Adobe Illustrator 19.1.0, SVG Export Plug-In . SVG Version: 6.00 Build 0)  -->
<svg version="1.1" id="Layer_1" xmlns="http://www.w3.org/2000/svg" xmlns:xlink="http://www.w3.org/1999/xlink" x="0px" y="0px"
	 viewBox="0 0 600 350" style="enable-background:new 0 0 600 350;" xml:space="preserve">
<style type="text/css">
	.st0{display:none;fill:#EF4136;}
	.st1{fill:url(#SVGID_1_);}
	.st2{fill:url(#SVGID_2_);}
	.st3{fill:url(#SVGID_3_);}
</style>
<rect id="Background_1_" class="st0" width="600" height="350"/>
<linearGradient id="SVGID_1_" gradientUnits="userSpaceOnUse" x1="63.185" y1="411.8747" x2="536.6618" y2="-61.602">
	<stop  offset="0" style="stop-color:#B5DDFF"/>
	<stop  offset="0.3159" style="stop-color:#C9E6FF"/>
	<stop  offset="0.9584" style="stop-color:#FBFDFF"/>
	<stop  offset="1" style="stop-color:#FFFFFF"/>
</linearGradient>
<rect x="-0.4" y="0.5" class="st1" width="600" height="350"/>
<g>
	
		<radialGradient id="SVGID_2_" cx="269.4087" cy="249.8155" r="240.1311" gradientTransform="matrix(0.8557 0 0 0.8557 50.4963 38.6209)" gradientUnits="userSpaceOnUse">
		<stop  offset="0" style="stop-color:#663366"/>
		<stop  offset="1" style="stop-color:#BB1D9B"/>
	</radialGradient>
	<path class="st2" d="M449.7,171.6l-51.4-0.1c0,0-17,0-25.1,0c-8.1,0-16.6,0-22.6,0v26.1l51.8,0c-3.7,15.2-13.1,23-22.2,28.4
		c-9.1,5.4-18.9,8.2-29.8,8.2c-8.2,0-15.8-1.5-23-4.5c-7.2-3-13.4-7.2-18.7-12.5c-5.3-5.3-9.4-11.6-12.5-18.8
		c-3.1-7.2-4.6-14.8-4.6-23c0-8.2,1.6-15.8,4.6-23c3.1-7.2,7.3-13.4,12.6-18.6c4-3.9,8.5-7.3,13.5-10c1.7-0.9,3.4-1.7,5.2-2.5
		c7.2-3.1,14.9-4.6,23.1-4.6c10.7,0,20.6,2.6,29.5,7.9c8.9,5.3,15.9,12.1,21,20.7c4.7-2.4,8.5-4.3,11.4-5.7c1.5-0.7,2.8-1.4,4.1-2.1
		c1.3-0.7,2.5-1.3,3.8-1.9c2.5-1.2,4.6-2.5,7.2-3.9c2.6-1.4,5.9-3.3,9.9-5.4v-0.7h0.3c-4.2-7-9.2-14.2-15.4-20.4
		c-6.2-6.3-12.6-11.4-20.2-15.9c-7.6-4.4-15.7-7.8-24.4-10.4c-8.7-2.5-17.8-3.8-27.3-3.8c-13.8,0-26.9,2.6-39,7.9
		c-10.4,4.5-20,9.5-28.2,16.8c-0.1-0.3,0.1,0.3,0,0c-20.3,18.6-32.9,45.4-32.9,75.1c0,0.8,0,1.5,0.1,2.3l-20.8,3.3
		c9.2,1.1,14.8,5.6,18.4,9.3c2.3,2.4,5.2,7.7,7.1,15.1c4.8,18.5,16.7,35.3,31.8,48.2c7.4,6.1,15.3,11.1,24.4,15
		c12.2,5.3,25.2,7.9,39,7.9c9.5,0,18.6-1.3,27.4-3.8c8.8-2.5,17.1-6.1,24.7-10.6c7.6-4.5,14.6-10,20.8-16.4
		c6.2-6.4,10.5-12,14.7-19.8c0,0,0-0.1,0.1-0.1c7.3-14.5,11.4-31.8,11.4-51.6C449.7,172.8,449.7,172.3,449.7,171.6z"/>
	
		<radialGradient id="SVGID_3_" cx="137.9657" cy="251.5095" r="220.1712" gradientTransform="matrix(0.6051 -0.6051 3.6303 3.6303 -827.9831 -575.7497)" gradientUnits="userSpaceOnUse">
		<stop  offset="0" style="stop-color:#005B97"/>
		<stop  offset="1" style="stop-color:#00B1C3"/>
	</radialGradient>
	<path class="st3" d="M255.5,205.3c0.8,2.4,0.9,5,0.8,7.9c-0.4,7.8-4.3,15.1-9,20c-3.7,3.9-12.4,9.2-20.8,9.2h-41.9v-62h49.8
		c-0.4,0,0.3,0,0.3,0c6.7,0,9.4-0.3,12.6-0.9c13.6-2.4,21-6.7,26.5-11.9c10.1-9.6,16.3-24.3,16.2-40.6
		c-0.2-21.5-12.1-35.4-19.8-41.3c-5.1-3.9-11.2-5.8-18.4-7.5c-7.1-1.7-15.1-1.8-23.7-1.8h-77.7l-0.1,198H245c0.8,0,0.9,0,2.4,0
		c3.1-0.3,6.3-0.6,9.3-1.5c7.5-2.2,14.2-5.9,20.1-10.4c0.3-0.2,0.6-0.4,0.9-0.6c0.2-0.1,0.3-0.2,0.5-0.4c2.5-2.1,4.9-4.3,7-6.7
		c0.5-0.5,0.9-1,1.4-1.6c0.1-0.1,0.2-0.3,0.3-0.4C272.1,240.1,261.3,223.3,255.5,205.3z M184.6,108.5h36.5c3.6,0,7.1,0.3,10.4,0.9
		c0.8,0.2,2.7,0.6,3.8,1.1c2.4,0.9,3.1,1.4,5,2.6c2.3,1.5,4.2,3.4,5.7,6c0.1,0.3,0.3,0.4,0.4,0.7c1.5,3,2.3,6.9,2.3,11.5
		c0,6.5-0.8,11.4-3.8,15.2c-0.2,0.3-1.8,1.9-3.2,3.1c-4.6,3.8-10.4,4.8-17.6,4.8h-39.6V108.5z"/>
</g>
</svg>
