<?xml version="1.0" encoding="utf-8"?>
<!-- Generator: Adobe Illustrator 19.1.0, SVG Export Plug-In . SVG Version: 6.00 Build 0)  -->
<svg version="1.1" id="Layer_1" xmlns="http://www.w3.org/2000/svg" xmlns:xlink="http://www.w3.org/1999/xlink" x="0px" y="0px"
	 viewBox="0 0 600 350" style="enable-background:new 0 0 600 350;" xml:space="preserve">
<style type="text/css">
	.st0{fill:#5B5B5B;}
	.st1{fill:none;stroke:#DBDBDB;stroke-miterlimit:10;}
	.st2{fill:#E07F34;}
	.st3{fill:#5788B7;}
	.st4{opacity:0.75;fill:#5788B7;}
	.st5{opacity:0.75;fill:#E07F34;}
	.st6{opacity:0.5;fill:#E07F34;}
	.st7{opacity:0.25;fill:#E07F34;}
	.st8{opacity:0.5;fill:#5788B7;}
	.st9{opacity:0.15;fill:#5788B7;}
</style>
<g>
	<path class="st0" d="M50,203.2v-0.2c0-13.4,10.2-24.3,24.5-24.3c8.8,0,14.3,3,18.7,7.9l-8.1,8.7c-3-3.1-5.9-5.1-10.6-5.1
		c-6.6,0-11.3,5.8-11.3,12.7v0.2c0,7.2,4.6,12.9,11.9,12.9c4.5,0,7.5-1.9,10.7-5l7.8,7.9c-4.5,5-9.8,8.6-19.1,8.6
		C60.3,227.4,50,216.6,50,203.2z"/>
	<path class="st0" d="M97.1,203.2v-0.2c0-13.4,9.5-24.3,23.1-24.3c15.6,0,22.8,12.1,22.8,25.4c0,1-0.1,2.3-0.2,3.5h-32.6
		c1.3,6,5.5,9.2,11.4,9.2c4.5,0,7.7-1.4,11.3-4.8l7.6,6.7c-4.4,5.4-10.6,8.7-19.1,8.7C107.5,227.4,97.1,217.6,97.1,203.2z
		 M130.1,199.3c-0.8-5.9-4.3-9.9-9.9-9.9c-5.5,0-9.1,3.9-10.1,9.9H130.1z"/>
	<path class="st0" d="M192.6,179.6h13.3v6.7c3.2-4.4,7.7-7.6,14.6-7.6c10.9,0,21.3,8.6,21.3,24.2v0.2c0,15.6-10.2,24.2-21.3,24.2
		c-7.1,0-11.4-3.2-14.6-7v24.2h-13.3V179.6z M228.5,203.1v-0.2c0-7.8-5.2-12.9-11.4-12.9c-6.2,0-11.3,5.1-11.3,12.9v0.2
		c0,7.8,5.1,12.9,11.3,12.9C223.3,216,228.5,210.9,228.5,203.1z"/>
	<path class="st0" d="M305,179.6h13.3v9.4c2.7-6.5,7.1-10.6,14.9-10.3v13.9h-0.7c-8.8,0-14.2,5.3-14.2,16.5v17.3H305V179.6z"/>
	<path class="st0" d="M397.8,212.3v-21.3h-5.6v-11.3h5.6v-12H411v12h11v11.3h-11v19.1c0,3.1,1.3,4.6,4.3,4.6c2.4,0,4.4,0,6.5,0v11.7
		c-3.1,0-6,0-10.5,0C403.3,226.3,397.8,223.1,397.8,212.3z"/>
	<path class="st0" d="M449.7,203.2v-0.2c0-13.4,10.8-24.3,25.4-24.3c14.5,0,25.2,10.7,25.2,24.2v0.2c0,13.4-10.8,24.3-25.4,24.3
		C460.5,227.4,449.7,216.7,449.7,203.2z M487.3,203.2v-0.2c0-6.9-5-12.9-12.3-12.9c-7.6,0-12.1,5.8-12.1,12.7v0.2
		c0,6.9,5,12.9,12.3,12.9C482.7,216,487.3,210.1,487.3,203.2z"/>
	<path class="st0" d="M507.2,179.6h13.3v6.6c3.1-3.9,7-7.5,13.7-7.5c10,0,15.9,6.6,15.9,17.4v30.3h-13.3v-26.1c0-6.3-3-9.5-8-9.5
		c-5.1,0-8.3,3.2-8.3,9.5v26.1h-13.3V179.6z"/>
	<path class="st0" d="M296.6,226.4h-13.3v-6.1c-3.1,3.8-7.5,7-14.6,7c-11.1,0-21.3-8.6-21.3-24.2v-0.2c0-15.6,10.4-24.2,21.3-24.2
		c6.9,0,11.3,3.2,14.6,7.6v-6.7h13.3V226.4z M272.1,216c6.2,0,11.3-5.1,11.3-12.9v-0.2c0-7.8-5.1-12.9-11.3-12.9
		c-6.2,0-11.4,5.1-11.4,12.9v0.2C260.7,210.9,265.9,216,272.1,216z"/>
	<path class="st0" d="M386.1,226.5h-13.3v-6.1c-3.1,3.8-7.5,7-14.6,7c-11.1,0-21.3-8.6-21.3-24.2V203c0-15.6,10.4-24.2,21.3-24.2
		c6.9,0,11.3,3.2,14.6,7.6v-6.7h13.3V226.5z M361.7,216.1c6.2,0,11.3-5.1,11.3-12.9V203c0-7.8-5.1-12.9-11.3-12.9
		c-6.2,0-11.4,5.1-11.4,12.9v0.2C350.2,211,355.5,216.1,361.7,216.1z"/>
	<path class="st1" d="M550,225.5"/>
	<g>
		<path class="st2" d="M150.2,220L150.2,220c0-3.6,2.8-6.4,6.7-6.4c3.8,0,6.6,2.8,6.6,6.3v0c0,3.5-2.8,6.4-6.7,6.4
			C153,226.4,150.2,223.6,150.2,220z"/>
		<path class="st2" d="M150.2,169.1L150.2,169.1c0-3.6,2.8-6.4,6.7-6.4c3.8,0,6.6,2.8,6.6,6.3v0c0,3.5-2.8,6.4-6.7,6.4
			C153,175.4,150.2,172.6,150.2,169.1z"/>
		<path class="st2" d="M150.2,186.1L150.2,186.1c0-3.6,2.8-6.4,6.7-6.4c3.8,0,6.6,2.8,6.6,6.3v0c0,3.5-2.8,6.4-6.7,6.4
			C153,192.4,150.2,189.6,150.2,186.1z"/>
		<path class="st2" d="M150.2,203.1L150.2,203.1c0-3.6,2.8-6.4,6.7-6.4c3.8,0,6.6,2.8,6.6,6.3v0c0,3.5-2.8,6.4-6.7,6.4
			C153,209.4,150.2,206.6,150.2,203.1z"/>
	</g>
	<g>
		<path class="st3" d="M171.8,220L171.8,220c0-3.6,2.8-6.4,6.7-6.4c3.8,0,6.6,2.8,6.6,6.3v0c0,3.5-2.8,6.4-6.7,6.4
			C174.6,226.4,171.8,223.6,171.8,220z"/>
		<path class="st3" d="M171.8,169.1L171.8,169.1c0-3.6,2.8-6.4,6.7-6.4c3.8,0,6.6,2.8,6.6,6.3v0c0,3.5-2.8,6.4-6.7,6.4
			C174.6,175.4,171.8,172.6,171.8,169.1z"/>
		<path class="st3" d="M171.8,186.1L171.8,186.1c0-3.6,2.8-6.4,6.7-6.4c3.8,0,6.6,2.8,6.6,6.3v0c0,3.5-2.8,6.4-6.7,6.4
			C174.6,192.4,171.8,189.6,171.8,186.1z"/>
		<path class="st3" d="M171.8,203.1L171.8,203.1c0-3.6,2.8-6.4,6.7-6.4c3.8,0,6.6,2.8,6.6,6.3v0c0,3.5-2.8,6.4-6.7,6.4
			C174.6,209.4,171.8,206.6,171.8,203.1z"/>
	</g>
	<path class="st2" d="M429.7,220L429.7,220c0-3.6,2.8-6.4,6.7-6.4c3.8,0,6.6,2.8,6.6,6.3v0c0,3.5-2.8,6.4-6.7,6.4
		C432.6,226.4,429.7,223.5,429.7,220z"/>
	<path class="st3" d="M429.7,167.4L429.7,167.4c0-3.6,2.8-6.4,6.7-6.4c3.8,0,6.6,2.8,6.6,6.3v0c0,3.5-2.8,6.4-6.7,6.4
		C432.6,173.7,429.7,170.9,429.7,167.4z"/>
	<path class="st2" d="M429.7,186.1L429.7,186.1c0-3.6,2.8-6.4,6.7-6.4c3.8,0,6.6,2.8,6.6,6.3v0c0,3.5-2.8,6.4-6.7,6.4
		C432.6,192.4,429.7,189.6,429.7,186.1z"/>
	<path class="st3" d="M429.7,203L429.7,203c0-3.6,2.8-6.4,6.7-6.4c3.8,0,6.6,2.8,6.6,6.3v0c0,3.5-2.8,6.4-6.7,6.4
		C432.6,209.4,429.7,206.6,429.7,203z"/>
	<path class="st2" d="M425.2,150.2L425.2,150.2c0-3.6,2.8-6.4,6.7-6.4c3.8,0,6.6,2.8,6.6,6.3v0c0,3.5-2.8,6.4-6.7,6.4
		C428,156.5,425.2,153.7,425.2,150.2z"/>
	<path class="st4" d="M411.2,137.5L411.2,137.5c0-3.6,2.8-6.4,6.7-6.4c3.8,0,6.6,2.8,6.6,6.3v0c0,3.5-2.8,6.4-6.7,6.4
		C414,143.8,411.2,141,411.2,137.5z"/>
	<path class="st5" d="M395.2,128.9L395.2,128.9c0-3.6,2.8-6.4,6.7-6.4c3.8,0,6.6,2.8,6.6,6.3v0c0,3.5-2.8,6.4-6.7,6.4
		C398,135.3,395.2,132.5,395.2,128.9z"/>
	<path class="st4" d="M375.1,124.3L375.1,124.3c0-3.6,2.8-6.4,6.7-6.4c3.8,0,6.6,2.8,6.6,6.3v0c0,3.5-2.8,6.4-6.7,6.4
		C377.9,130.6,375.1,127.8,375.1,124.3z"/>
	<path class="st6" d="M356.7,116.8L356.7,116.8c0-3.6,2.8-6.4,6.7-6.4c3.8,0,6.6,2.8,6.6,6.3v0c0,3.5-2.8,6.4-6.7,6.4
		C359.5,123.2,356.7,120.3,356.7,116.8z"/>
	<path class="st7" d="M315.9,111.9L315.9,111.9c0-3.6,2.8-6.4,6.7-6.4c3.8,0,6.6,2.8,6.6,6.3v0c0,3.5-2.8,6.4-6.7,6.4
		C318.7,118.3,315.9,115.5,315.9,111.9z"/>
	<path class="st7" d="M274.9,111.9L274.9,111.9c0-3.6,2.8-6.4,6.7-6.4c3.8,0,6.6,2.8,6.6,6.3v0c0,3.5-2.8,6.4-6.7,6.4
		C277.7,118.3,274.9,115.5,274.9,111.9z"/>
	<path class="st8" d="M256.5,120L256.5,120c0-3.6,2.8-6.4,6.7-6.4c3.8,0,6.6,2.8,6.6,6.3v0c0,3.5-2.8,6.4-6.7,6.4
		C259.3,126.3,256.5,123.5,256.5,120z"/>
	<path class="st6" d="M236.7,115.1L236.7,115.1c0-3.6,2.8-6.4,6.7-6.4c3.8,0,6.6,2.8,6.6,6.3v0c0,3.5-2.8,6.4-6.7,6.4
		C239.6,121.5,236.7,118.6,236.7,115.1z"/>
	<path class="st4" d="M218.1,126.4L218.1,126.4c0-3.6,2.8-6.4,6.7-6.4c3.8,0,6.6,2.8,6.6,6.3v0c0,3.5-2.8,6.4-6.7,6.4
		C221,132.7,218.1,129.9,218.1,126.4z"/>
	<path class="st5" d="M202.1,122.1L202.1,122.1c0-3.6,2.8-6.4,6.7-6.4c3.8,0,6.6,2.8,6.6,6.3v0c0,3.5-2.8,6.4-6.7,6.4
		C204.9,128.5,202.1,125.7,202.1,122.1z"/>
	<path class="st4" d="M190.5,137L190.5,137c0-3.6,2.8-6.4,6.7-6.4c3.8,0,6.6,2.8,6.6,6.3v0c0,3.5-2.8,6.4-6.7,6.4
		C193.3,143.3,190.5,140.5,190.5,137z"/>
	<path class="st2" d="M173.4,133.1L173.4,133.1c0-3.6,2.8-6.4,6.7-6.4c3.8,0,6.6,2.8,6.6,6.3v0c0,3.5-2.8,6.4-6.7,6.4
		C176.2,139.5,173.4,136.6,173.4,133.1z"/>
	<path class="st3" d="M174.7,151.4L174.7,151.4c0-3.6,2.8-6.4,6.7-6.4c3.8,0,6.6,2.8,6.6,6.3v0c0,3.5-2.8,6.4-6.7,6.4
		C177.5,157.7,174.7,154.9,174.7,151.4z"/>
	<path class="st2" d="M156,147.6L156,147.6c0-3.6,2.8-6.4,6.7-6.4c3.8,0,6.6,2.8,6.6,6.3v0c0,3.5-2.8,6.4-6.7,6.4
		C158.8,153.9,156,151.1,156,147.6z"/>
	<path class="st9" d="M295,117L295,117c0-3.6,2.8-6.4,6.7-6.4c3.8,0,6.6,2.8,6.6,6.3v0c0,3.5-2.8,6.4-6.7,6.4
		C297.8,123.4,295,120.5,295,117z"/>
	<path class="st8" d="M334.9,117.9L334.9,117.9c0-3.6,2.8-6.4,6.7-6.4c3.8,0,6.6,2.8,6.6,6.3v0c0,3.5-2.8,6.4-6.7,6.4
		C337.7,124.2,334.9,121.4,334.9,117.9z"/>
</g>
</svg>
