<?xml version="1.0" encoding="utf-8"?>
<!-- Generator: Adobe Illustrator 19.1.0, SVG Export Plug-In . SVG Version: 6.00 Build 0)  -->
<svg version="1.1" id="Layer_1" xmlns="http://www.w3.org/2000/svg" xmlns:xlink="http://www.w3.org/1999/xlink" x="0px" y="0px"
	 viewBox="0 0 600 350" style="enable-background:new 0 0 600 350;" xml:space="preserve">
<style type="text/css">
	.st0{fill:#063343;}
	.st1{fill:#00688C;}
	.st2{fill:url(#SVGID_1_);}
	.st3{fill:#76CAE5;}
	.st4{fill:url(#SVGID_2_);}
	.st5{fill:url(#SVGID_3_);}
</style>
<g>
	<g>
		<path class="st0" d="M50,188.5l4.9-5.9c3.4,2.8,7,4.6,11.3,4.6c3.4,0,5.5-1.4,5.5-3.6v-0.1c0-2.1-1.3-3.2-7.6-4.8
			c-7.6-2-12.6-4.1-12.6-11.6V167c0-6.9,5.5-11.4,13.3-11.4c5.5,0,10.2,1.7,14.1,4.8l-4.3,6.3c-3.4-2.3-6.7-3.7-9.9-3.7
			s-4.9,1.5-4.9,3.3v0.1c0,2.5,1.6,3.3,8.2,5c7.7,2,12,4.8,12,11.4v0.1c0,7.5-5.7,11.8-13.9,11.8C60.3,194.6,54.6,192.5,50,188.5z"
			/>
		<path class="st0" d="M96.7,163.8H85.1v-7.7h31.4v7.7H105V194h-8.3V163.8z"/>
		<path class="st0" d="M124.3,156.1h17.3c4.8,0,8.6,1.4,11.1,3.8c2.1,2.1,3.3,5.1,3.3,8.7v0.1c0,6.1-3.3,10-8.1,11.8l9.3,13.5h-9.8
			l-8.1-12.1h-6.6V194h-8.3V156.1z M141.1,174.5c4.1,0,6.4-2.2,6.4-5.4V169c0-3.6-2.5-5.4-6.6-5.4h-8.3v10.9H141.1z"/>
		<path class="st0" d="M177.8,155.8h7.7l16.3,38.2H193l-3.5-8.5h-16l-3.5,8.5h-8.5L177.8,155.8z M186.6,178.1l-5-12.3l-5,12.3H186.6
			z"/>
		<path class="st0" d="M212.9,163.8h-11.5v-7.7h31.4v7.7h-11.5V194h-8.3V163.8z"/>
		<path class="st0" d="M240,177.8v-21.7h8.3v21.5c0,6.2,3.1,9.4,8.2,9.4c5.1,0,8.2-3.1,8.2-9.1v-21.7h8.3v21.4
			c0,11.5-6.4,17.1-16.6,17.1C246.2,194.6,240,188.9,240,177.8z"/>
	</g>
	<g>
		<path class="st0" d="M362.1,163.8h-11.5v-7.7H382v7.7h-11.5V194h-8.3V163.8z"/>
		<path class="st0" d="M389.7,156.1h17.3c4.8,0,8.6,1.4,11.1,3.8c2.1,2.1,3.3,5.1,3.3,8.7v0.1c0,6.1-3.3,10-8.1,11.8l9.3,13.5h-9.8
			l-8.1-12.1h-6.6V194h-8.3V156.1z M406.5,174.5c4.1,0,6.4-2.2,6.4-5.4V169c0-3.6-2.5-5.4-6.6-5.4h-8.3v10.9H406.5z"/>
		<path class="st0" d="M430.3,156.1h28.6v7.4h-20.3v7.7h17.9v7.4h-17.9v8h20.6v7.4h-28.9V156.1z"/>
		<path class="st0" d="M480.9,155.8h7.7l16.3,38.2h-8.7l-3.5-8.5h-16l-3.5,8.5h-8.5L480.9,155.8z M489.7,178.1l-5-12.3l-5,12.3
			H489.7z"/>
		<path class="st0" d="M512.1,156.1h9l10,16l10-16h9V194h-8.3v-24.8L531,185.4h-0.2l-10.6-16V194h-8.2V156.1z"/>
	</g>
	<polygon class="st1" points="336.9,193.9 308.8,193.9 287,156.1 315,156.1 	"/>
	<linearGradient id="SVGID_1_" gradientUnits="userSpaceOnUse" x1="300.0297" y1="156.4663" x2="314.2954" y2="132.1474">
		<stop  offset="0" style="stop-color:#00688C"/>
		<stop  offset="1" style="stop-color:#063343"/>
	</linearGradient>
	<polygon class="st2" points="286.7,155.5 300.7,131.2 314.7,155.5 	"/>
	<path class="st3" d="M329.4,131.2l14,24.3h-28.1l-14-24.3H329.4z"/>
	
		<linearGradient id="SVGID_2_" gradientUnits="userSpaceOnUse" x1="293.492" y1="-417.392" x2="307.7578" y2="-441.7109" gradientTransform="matrix(1 0 0 -1 0 -223.8583)">
		<stop  offset="0" style="stop-color:#76CAE5"/>
		<stop  offset="1" style="stop-color:#2995B7"/>
	</linearGradient>
	<polygon class="st4" points="280.1,194.5 294.1,218.8 308.2,194.5 	"/>
	<linearGradient id="SVGID_3_" gradientUnits="userSpaceOnUse" x1="294.7706" y1="206.6047" x2="336.8661" y2="206.6047">
		<stop  offset="0" style="stop-color:#00688C"/>
		<stop  offset="1" style="stop-color:#063343"/>
	</linearGradient>
	<path class="st5" d="M294.8,218.8l14-24.3h28.1l-14,24.3H294.8z"/>
</g>
</svg>
